<svg id="Layer_1" data-name="Layer 1" xmlns="http://www.w3.org/2000/svg" viewBox="0 0 131.54 45.75"><defs><style>.cls-1{fill:#ffac0d;}</style></defs><path d="M18.91,45.53H.73V20.22H18.91v3.23H7.71v7.83h8.65v3.21H7.71V42.3h11.2Z" transform="translate(-0.73 -0.26)"/><path d="M41.83,45.53H39.55l-2.64-4.41a7.22,7.22,0,0,1-1.06,2,7.39,7.39,0,0,1-1.57,1.54A7,7,0,0,1,30.09,46a10,10,0,0,1-4.15-.83,8.9,8.9,0,0,1-3.09-2.26,9.81,9.81,0,0,1-1.94-3.36,13.38,13.38,0,0,1,0-8.3,9.81,9.81,0,0,1,1.94-3.36,9,9,0,0,1,3.09-2.25,10,10,0,0,1,4.15-.82,7.65,7.65,0,0,1,3.26.68,6.42,6.42,0,0,1,2.54,2.15v-9.9h5.94Zm-6-10.12a12.67,12.67,0,0,0-.11-1.55,13.06,13.06,0,0,0-.33-1.7,11.83,11.83,0,0,0-.6-1.67A6.47,6.47,0,0,0,33.91,29a4.21,4.21,0,0,0-1.25-1A3.4,3.4,0,0,0,31,27.66,3.92,3.92,0,0,0,29.3,28,4,4,0,0,0,28,29a5.51,5.51,0,0,0-.87,1.4A9.34,9.34,0,0,0,26.63,32a14.83,14.83,0,0,0-.28,1.73c-.05.58-.07,1.13-.07,1.65s0,1.06.07,1.64a14.49,14.49,0,0,0,.28,1.73,9.18,9.18,0,0,0,.53,1.66A5.24,5.24,0,0,0,28,41.85a4.05,4.05,0,0,0,1.27,1,3.92,3.92,0,0,0,1.74.36,4.22,4.22,0,0,0,1.76-.35,4.11,4.11,0,0,0,1.29-1A5.38,5.38,0,0,0,35,40.48a8.84,8.84,0,0,0,.53-1.65,15.16,15.16,0,0,0,.28-1.75C35.83,36.49,35.86,35.93,35.86,35.41Z" transform="translate(-0.73 -0.26)"/><path d="M52.31,20.33a3.19,3.19,0,0,1-.26,1.26,3.15,3.15,0,0,1-1.73,1.73,3.19,3.19,0,0,1-1.26.26,3.12,3.12,0,0,1-1.26-.26,3.45,3.45,0,0,1-1-.69,3.26,3.26,0,0,1-.69-1,3.19,3.19,0,0,1-.26-1.26,3.12,3.12,0,0,1,.26-1.26,3.33,3.33,0,0,1,.69-1,3.45,3.45,0,0,1,1-.69,3.12,3.12,0,0,1,1.26-.26,3.19,3.19,0,0,1,1.26.26,3.26,3.26,0,0,1,1,.69,3.33,3.33,0,0,1,.69,1A3.12,3.12,0,0,1,52.31,20.33Zm-.26,25.2h-6V25.25h6Z" transform="translate(-0.73 -0.26)"/><path d="M77.89,35.41a12.8,12.8,0,0,1-.67,4.15,10,10,0,0,1-1.93,3.36,9,9,0,0,1-3.1,2.26A10,10,0,0,1,68,46a7,7,0,0,1-4.19-1.35,7.34,7.34,0,0,1-1.56-1.54,7,7,0,0,1-1.07-2l-2.63,4.41H56.3V17.76h5.94v9.9a6.42,6.42,0,0,1,2.54-2.15A7.65,7.65,0,0,1,68,24.83a10,10,0,0,1,4.15.82,9.14,9.14,0,0,1,3.1,2.25,10,10,0,0,1,1.93,3.36A12.76,12.76,0,0,1,77.89,35.41Zm-6,0c0-.52,0-1.07-.08-1.65A14.79,14.79,0,0,0,71.51,32,9.37,9.37,0,0,0,71,30.38,5.51,5.51,0,0,0,70.1,29a3.83,3.83,0,0,0-3-1.32,3.4,3.4,0,0,0-1.62.37,4.34,4.34,0,0,0-1.25,1,6.47,6.47,0,0,0-.91,1.45,10.67,10.67,0,0,0-.59,1.67,11.62,11.62,0,0,0-.34,1.7,12.54,12.54,0,0,0-.1,1.55,16.46,16.46,0,0,0,.08,1.67,13.23,13.23,0,0,0,.27,1.75,9.64,9.64,0,0,0,.53,1.65A5.66,5.66,0,0,0,64,41.87a3.87,3.87,0,0,0,3,1.31,4,4,0,0,0,1.74-.36,4.05,4.05,0,0,0,1.27-1A5.24,5.24,0,0,0,71,40.44a9.21,9.21,0,0,0,.54-1.66,14.47,14.47,0,0,0,.27-1.73C71.83,36.47,71.86,35.92,71.86,35.41Z" transform="translate(-0.73 -0.26)"/><path d="M86.94,45.53H81V15.88h2.28l3.66,6.17Z" transform="translate(-0.73 -0.26)"/><path d="M110.71,31.89a5.79,5.79,0,0,1-.41,2.23,5.46,5.46,0,0,1-1.1,1.71,6.76,6.76,0,0,1-1.6,1.25,9.78,9.78,0,0,1-2,.83,12.63,12.63,0,0,1-2.13.47,17.59,17.59,0,0,1-2.14.14,17.3,17.3,0,0,1-2.6-.19,14.93,14.93,0,0,1-2.53-.58,10.1,10.1,0,0,0,.62,2.2A6,6,0,0,0,98,41.78,5.21,5.21,0,0,0,99.71,43a6.07,6.07,0,0,0,2.44.46,5.47,5.47,0,0,0,1.77-.29,5.53,5.53,0,0,0,1.55-.79,5.92,5.92,0,0,0,1.24-1.21,6.25,6.25,0,0,0,.87-1.56l2.56.95A7.15,7.15,0,0,1,108.55,43a8.7,8.7,0,0,1-2.28,1.67,11,11,0,0,1-2.71,1,13.16,13.16,0,0,1-2.84.32,11.4,11.4,0,0,1-4.29-.79,9.82,9.82,0,0,1-5.62-5.54,11.66,11.66,0,0,1,0-8.54A10.13,10.13,0,0,1,93,27.71a10,10,0,0,1,3.39-2.19,11.6,11.6,0,0,1,4.29-.78,16.72,16.72,0,0,1,2.31.16,13.42,13.42,0,0,1,2.28.5,10.51,10.51,0,0,1,2.09.89,6.69,6.69,0,0,1,1.72,1.34,6.37,6.37,0,0,1,1.16,1.85A6.51,6.51,0,0,1,110.71,31.89Zm-14.65,4c.73.16,1.46.29,2.18.39a17.93,17.93,0,0,0,2.2.14,10.36,10.36,0,0,0,2.15-.22,4.85,4.85,0,0,0,1.73-.74,3.71,3.71,0,0,0,1.15-1.38,4.86,4.86,0,0,0,.42-2.14,6,6,0,0,0-.28-1.9,4.06,4.06,0,0,0-.84-1.48,3.73,3.73,0,0,0-1.36-1,4.74,4.74,0,0,0-1.88-.34,4.17,4.17,0,0,0-1.8.37,4.79,4.79,0,0,0-1.41,1,6.12,6.12,0,0,0-1,1.45,10.78,10.78,0,0,0-.72,1.72,11.61,11.61,0,0,0-.4,1.82,13.11,13.11,0,0,0-.12,1.72v.28A2.62,2.62,0,0,0,96.06,35.9Z" transform="translate(-0.73 -0.26)"/><path d="M131.17,39.05a6.69,6.69,0,0,1-.39,2.37,5.92,5.92,0,0,1-1.05,1.8,6,6,0,0,1-1.59,1.28,9,9,0,0,1-2,.84,13.57,13.57,0,0,1-2.18.46,19.48,19.48,0,0,1-2.27.14,16.15,16.15,0,0,1-2.67-.2,10.12,10.12,0,0,1-2.22-.62,12.61,12.61,0,0,1-2.1-1.12c-.7-.45-1.47-1-2.33-1.67l3.46-2.83a6.32,6.32,0,0,0,1.26,1.63,11.13,11.13,0,0,0,1.63,1.26,8.15,8.15,0,0,0,1.63.8,4.07,4.07,0,0,0,1.29.29l.91,0a9.42,9.42,0,0,0,1-.11,7.29,7.29,0,0,0,1-.23,3.48,3.48,0,0,0,.91-.43,2.19,2.19,0,0,0,.63-.69,1.94,1.94,0,0,0,.24-1,1.78,1.78,0,0,0-.31-1,2.84,2.84,0,0,0-.8-.78,5.1,5.1,0,0,0-1.12-.56c-.42-.16-.85-.29-1.28-.41s-.84-.22-1.24-.31-.74-.17-1-.25L119,37.17c-.6-.15-1.19-.34-1.77-.54a12.71,12.71,0,0,1-1.68-.73,5.89,5.89,0,0,1-1.41-1,4.57,4.57,0,0,1-1-1.39,4.52,4.52,0,0,1-.36-1.87,6.35,6.35,0,0,1,.79-3.3,6.15,6.15,0,0,1,2.06-2.12,8.65,8.65,0,0,1,2.92-1.14,16.76,16.76,0,0,1,3.32-.33,13.25,13.25,0,0,1,2.44.24,13.44,13.44,0,0,1,2.5.7,13,13,0,0,1,2.27,1.13,7.55,7.55,0,0,1,1.76,1.53l-3.47,2.85a5.86,5.86,0,0,0-1-1.81A5.8,5.8,0,0,0,125,28.14a5.69,5.69,0,0,0-1.5-.71,5,5,0,0,0-1.41-.23c-.42,0-.9,0-1.42.05a5.88,5.88,0,0,0-1.49.3,3,3,0,0,0-1.18.75,1.9,1.9,0,0,0-.48,1.38,2,2,0,0,0,.29,1.08,2.65,2.65,0,0,0,.76.77,4.84,4.84,0,0,0,1.09.55c.4.14.81.27,1.23.38s.84.21,1.24.29.75.17,1.07.27c.54.15,1.11.31,1.71.46s1.2.34,1.79.55a12.62,12.62,0,0,1,1.69.72,5.5,5.5,0,0,1,1.43,1,4.67,4.67,0,0,1,1,1.4A4.55,4.55,0,0,1,131.17,39.05Z" transform="translate(-0.73 -0.26)"/><path class="cls-1" d="M132.23.26C129.6,6.14,123.09,7,114.54,9.53c-7.31,2.13-10.07,8.55-10.72,10.38l.05,0a3.47,3.47,0,0,1,.37-.3,16.71,16.71,0,0,1,3.24-1.84c.57-.22,1.14-.47,1.73-.66l.88-.29.88-.26,1.75-.49,1.77-.46a58.53,58.53,0,0,0,6.87-2,14.56,14.56,0,0,0,3.1-1.63A12.31,12.31,0,0,0,127,9.47a9.27,9.27,0,0,1-2.11,3,11.87,11.87,0,0,1-1.47,1.18,14,14,0,0,1-1.62.95A24.83,24.83,0,0,1,118.36,16c-.58.18-1.17.35-1.76.51l-1.77.47c-2.34.6-4.71,1.1-7,1.82a19.09,19.09,0,0,0-3.26,1.38c-.14.06-.26.14-.39.21l-.31.2c5.19,3.17,18.55,1.67,23.81-5.7A22.64,22.64,0,0,0,132.23.26Z" transform="translate(-0.73 -0.26)"/><path class="cls-1" d="M103.73,15.13a23.48,23.48,0,0,1-3.52-1.64c-.56-.33-1.11-.67-1.63-1.05A11.71,11.71,0,0,1,97.1,11.2a15.06,15.06,0,0,0,1.66.94,17.9,17.9,0,0,0,1.72.8c.29.13.58.24.87.36s.59.23.89.33c.6.2,1.19.41,1.8.58.42.12.85.24,1.28.34a18.24,18.24,0,0,1,2.79-3,11.36,11.36,0,0,0-5.59-2.49c-5.48-.62-7,.8-9.67-.89,0,0,1.63,8.67,9.9,11a19.13,19.13,0,0,1,1.93-3.74Z" transform="translate(-0.73 -0.26)"/><path class="cls-1" d="M99.84,20.14A19.1,19.1,0,0,1,85,10.12" transform="translate(-0.73 -0.26)"/></svg>